<?xml version="1.0"?>
<svg xmlns="http://www.w3.org/2000/svg" version="1.1" width="1500pt" height="750pt" viewBox="0 0 1500 750" preserveAspectRatio="none" xmlns:xlink="http://www.w3.org/1999/xlink">
  <defs>
  </defs>
  <path d="M101.999992370605,80.9999923706055 C101.999992370605,92.5979690551758 92.5979766845703,101.999992370605 81,102 C69.4020233154297,102 60.0000038146973,92.5979843139648 59.9999961853027,81.0000076293945 L60,81.0000152587891 C59.9999885559082,69.4020309448242 69.4020004272461,60.0000038146973 80.9999618530273,60 C92.5979461669922,59.9999771118164 101.999977111816,69.401985168457 101.999992370605,80.9999923706055 C101.999992370605,80.9999923706055 101.999992370605,81 101.999992370605,81 " stroke="none" fill="#000000" fill-rule="evenodd" stroke-width="0" fill-opacity="0" />
  <text x="7.64668893814087" y="32.3533477783203" dx="0" dy="0" font-family="Segoe UI" font-size="7.8000001859665pt" fill="#7C7C7C" style="text-anchor:start" transform="matrix(0.750000 0.000000 0.000000 0.750000 60 60)">START</text>
  <path d="M101.999992370605,80.9999923706055 C101.999992370605,92.5979690551758 92.5979766845703,101.999992370605 81,102 C69.4020233154297,102 60.0000038146973,92.5979843139648 59.9999961853027,81.0000076293945 L60,81.0000152587891 C59.9999885559082,69.4020309448242 69.4020004272461,60.0000038146973 80.9999618530273,60 C92.5979461669922,59.9999771118164 101.999977111816,69.401985168457 101.999992370605,80.9999923706055 C101.999992370605,80.9999923706055 101.999992370605,81 101.999992370605,81 " stroke="#5B5B5B" fill="none" stroke-width="3" stroke-opacity="1" />
  <path d="M177.749984741211,80.9999923706055 C177.749984741211,92.5979690551758 168.34797668457,101.999992370605 156.75,102 C145.15202331543,102 135.75,92.5979843139648 135.749984741211,81.0000076293945 L135.75,81.0000152587891 C135.749984741211,69.4020309448242 145.151992797852,60.0000038146973 156.749954223633,60 C168.347946166992,59.9999771118164 177.749969482422,69.401985168457 177.749984741211,80.9999923706055 C177.749984741211,80.9999923706055 177.749984741211,81 177.749984741211,81 " stroke="none" fill="#000000" fill-rule="evenodd" stroke-width="0" fill-opacity="0" />
  <text x="12.7125215530396" y="32.3533477783203" dx="0" dy="0" font-family="Segoe UI" font-size="7.8000001859665pt" fill="#7C7C7C" style="text-anchor:start" transform="matrix(0.750000 0.000000 0.000000 0.750000 135.75 60)">END</text>
  <path d="M177.749984741211,80.9999923706055 C177.749984741211,92.5979690551758 168.34797668457,101.999992370605 156.75,102 C145.15202331543,102 135.75,92.5979843139648 135.749984741211,81.0000076293945 L135.75,81.0000152587891 C135.749984741211,69.4020309448242 145.151992797852,60.0000038146973 156.749954223633,60 C168.347946166992,59.9999771118164 177.749969482422,69.401985168457 177.749984741211,80.9999923706055 C177.749984741211,80.9999923706055 177.749984741211,81 177.749984741211,81 " stroke="#5B5B5B" fill="none" stroke-width="3" stroke-opacity="1" />
  <path d="M102,81 L127.200004577637,81 " stroke="#5B5B5B" fill="none" stroke-width="3" stroke-opacity="1" />
  <path d="M135.75,81 L127.199996948242,84.3299942016602 L127.199996948242,77.6699981689453 L135.75,81 " stroke="none" fill="#5B5B5B" fill-rule="evenodd" stroke-width="0" fill-opacity="1" />
  <path d="M135.75,81 L127.199996948242,84.3299942016602 L127.199996948242,77.6699981689453 L135.75,81 " stroke="#5B5B5B" fill="none" stroke-width="3" stroke-opacity="1" />
</svg>